<?xml version="1.0" encoding="UTF-8"?>

<svg version="1.2" baseProfile="tiny" width="210mm" height="297mm" viewBox="0 0 21000 29700" preserveAspectRatio="xMidYMid" fill-rule="evenodd" clip-path="url(#presentation_clip_path)" stroke-width="28.222" stroke-linejoin="round" xmlns="http://www.w3.org/2000/svg" xmlns:ooo="http://xml.openoffice.org/svg/export" xmlns:xlink="http://www.w3.org/1999/xlink" xml:space="preserve">
 <defs class="ClipPathGroup">
  <clipPath id="presentation_clip_path" clipPathUnits="userSpaceOnUse">
   <rect x="0" y="0" width="21000" height="29700"/>
  </clipPath>
 </defs>
 <defs class="TextShapeIndex">
  <g ooo:slide="id1" ooo:id-list="id3 id4"/>
 </defs>
 <defs class="EmbeddedBulletChars">
  <g id="bullet-char-template(57356)" transform="scale(0.00048828125,-0.00048828125)">
   <path d="M 580,1141 L 1163,571 580,0 -4,571 580,1141 Z"/>
  </g>
  <g id="bullet-char-template(57354)" transform="scale(0.00048828125,-0.00048828125)">
   <path d="M 8,1128 L 1137,1128 1137,0 8,0 8,1128 Z"/>
  </g>
  <g id="bullet-char-template(10146)" transform="scale(0.00048828125,-0.00048828125)">
   <path d="M 174,0 L 602,739 174,1481 1456,739 174,0 Z M 1358,739 L 309,1346 659,739 1358,739 Z"/>
  </g>
  <g id="bullet-char-template(10132)" transform="scale(0.00048828125,-0.00048828125)">
   <path d="M 2015,739 L 1276,0 717,0 1260,543 174,543 174,936 1260,936 717,1481 1274,1481 2015,739 Z"/>
  </g>
  <g id="bullet-char-template(10007)" transform="scale(0.00048828125,-0.00048828125)">
   <path d="M 0,-2 C -7,14 -16,27 -25,37 L 356,567 C 262,823 215,952 215,954 215,979 228,992 255,992 264,992 276,990 289,987 310,991 331,999 354,1012 L 381,999 492,748 772,1049 836,1024 860,1049 C 881,1039 901,1025 922,1006 886,937 835,863 770,784 769,783 710,716 594,584 L 774,223 C 774,196 753,168 711,139 L 727,119 C 717,90 699,76 672,76 641,76 570,178 457,381 L 164,-76 C 142,-110 111,-127 72,-127 30,-127 9,-110 8,-76 1,-67 -2,-52 -2,-32 -2,-23 -1,-13 0,-2 Z"/>
  </g>
  <g id="bullet-char-template(10004)" transform="scale(0.00048828125,-0.00048828125)">
   <path d="M 285,-33 C 182,-33 111,30 74,156 52,228 41,333 41,471 41,549 55,616 82,672 116,743 169,778 240,778 293,778 328,747 346,684 L 369,508 C 377,444 397,411 428,410 L 1163,1116 C 1174,1127 1196,1133 1229,1133 1271,1133 1292,1118 1292,1087 L 1292,965 C 1292,929 1282,901 1262,881 L 442,47 C 390,-6 338,-33 285,-33 Z"/>
  </g>
  <g id="bullet-char-template(9679)" transform="scale(0.00048828125,-0.00048828125)">
   <path d="M 813,0 C 632,0 489,54 383,161 276,268 223,411 223,592 223,773 276,916 383,1023 489,1130 632,1184 813,1184 992,1184 1136,1130 1245,1023 1353,916 1407,772 1407,592 1407,412 1353,268 1245,161 1136,54 992,0 813,0 Z"/>
  </g>
  <g id="bullet-char-template(8226)" transform="scale(0.00048828125,-0.00048828125)">
   <path d="M 346,457 C 273,457 209,483 155,535 101,586 74,649 74,723 74,796 101,859 155,911 209,963 273,989 346,989 419,989 480,963 531,910 582,859 608,796 608,723 608,648 583,586 532,535 482,483 420,457 346,457 Z"/>
  </g>
  <g id="bullet-char-template(8211)" transform="scale(0.00048828125,-0.00048828125)">
   <path d="M -4,459 L 1135,459 1135,606 -4,606 -4,459 Z"/>
  </g>
 </defs>
 <defs class="TextEmbeddedBitmaps"/>
 <g>
  <g id="id2" class="Master_Slide">
   <g id="bg-id2" class="Background"/>
   <g id="bo-id2" class="BackgroundObjects"/>
  </g>
 </g>
 <g class="SlideGroup">
  <g>
   <g id="id1" class="Slide" clip-path="url(#presentation_clip_path)">
    <g class="Page">
     <g class="com.sun.star.drawing.EllipseShape">
      <g id="id3">
       <path fill="none" stroke="rgb(255,51,51)" stroke-width="80" stroke-linejoin="round" d="M 7404,6556 C 7219,6556 7061,6514 6901,6421 6740,6328 6625,6213 6532,6053 6439,5892 6397,5734 6397,5549 6397,5364 6439,5206 6532,5046 6625,4885 6740,4770 6901,4677 7061,4584 7219,4542 7404,4542 7589,4542 7747,4584 7908,4677 8068,4770 8183,4885 8276,5045 8369,5206 8411,5364 8411,5549 8411,5734 8369,5892 8276,6052 8183,6213 8068,6328 7908,6421 7747,6514 7589,6556 7404,6556 L 7404,6556 Z"/>
      </g>
     </g>
     <g class="com.sun.star.drawing.EllipseShape">
      <g id="id4">
      <!-- <path fill="rgb(255,102,0)" stroke="none" d="M 7404,6240 C 7277,6240 7169,6211 7059,6147 6948,6084 6869,6005 6806,5895 6742,5784 6713,5676 6713,5549 6713,5422 6742,5314 6806,5204 6869,5093 6948,5014 7059,4951 7169,4887 7277,4858 7404,4858 7531,4858 7639,4887 7750,4951 7860,5014 7939,5093 8002,5204 8066,5314 8095,5422 8095,5549 8095,5676 8066,5784 8002,5894 7939,6005 7860,6084 7750,6147 7639,6211 7531,6240 7404,6240 L 7404,6240 Z"/> -->
      
      <path fill="rgb(255,102,0)" stroke="none" d="M 7404,6240 C 7277,6240 6806,5895 6742,5784 6713,5676 6713,5549 6713,5422 6742,5314 6806,5204 6869,5093 6948,5014 7059,4951 7169,4887 7277,4858 7404,4858 7531,4858 7639,4887 7750,4951 7860,5014 7939,5093 8002,5204 8066,5314 8095,5422 8095,5549 8095,5676 8066,5784 8002,5894 7939,6005 7860,6084 7750,6147 7639,6211 7531,6240 7404,6240 L 7404,6240 Z"/> 
      </g>
     </g>
    </g>
   </g>
  </g>
 </g>
</svg>